<mxfile host="app.diagrams.net" modified="2021-12-04T05:10:13.188Z" agent="5.0 (Windows NT 10.0; Win64; x64) AppleWebKit/537.36 (KHTML, like Gecko) Chrome/96.0.4664.55 Safari/537.36 Edg/96.0.1054.43" etag="oJlgVfEMzbJJRit2UBkZ" version="15.9.1" type="github">
  <diagram id="C5RBs43oDa-KdzZeNtuy" name="Page-1">
    <mxGraphModel dx="1104" dy="884" grid="1" gridSize="10" guides="1" tooltips="1" connect="1" arrows="1" fold="1" page="1" pageScale="1" pageWidth="827" pageHeight="1169" math="0" shadow="0">
      <root>
        <mxCell id="WIyWlLk6GJQsqaUBKTNV-0" />
        <mxCell id="WIyWlLk6GJQsqaUBKTNV-1" parent="WIyWlLk6GJQsqaUBKTNV-0" />
        <mxCell id="WIyWlLk6GJQsqaUBKTNV-2" value="" style="rounded=0;html=1;jettySize=auto;orthogonalLoop=1;fontSize=11;endArrow=block;endFill=0;endSize=8;strokeWidth=1;shadow=0;labelBackgroundColor=none;edgeStyle=orthogonalEdgeStyle;" parent="WIyWlLk6GJQsqaUBKTNV-1" source="WIyWlLk6GJQsqaUBKTNV-3" target="WIyWlLk6GJQsqaUBKTNV-6" edge="1">
          <mxGeometry relative="1" as="geometry" />
        </mxCell>
        <mxCell id="WIyWlLk6GJQsqaUBKTNV-3" value="실행" style="rounded=1;whiteSpace=wrap;html=1;fontSize=12;glass=0;strokeWidth=1;shadow=0;" parent="WIyWlLk6GJQsqaUBKTNV-1" vertex="1">
          <mxGeometry x="160" y="80" width="120" height="40" as="geometry" />
        </mxCell>
        <mxCell id="WIyWlLk6GJQsqaUBKTNV-6" value="게임 시작" style="rhombus;whiteSpace=wrap;html=1;shadow=0;fontFamily=Helvetica;fontSize=12;align=center;strokeWidth=1;spacing=6;spacingTop=-4;" parent="WIyWlLk6GJQsqaUBKTNV-1" vertex="1">
          <mxGeometry x="170" y="150" width="100" height="80" as="geometry" />
        </mxCell>
        <mxCell id="yMtjG-S56oMLCAJ_Q67d-2" value="main" style="text;html=1;strokeColor=none;fillColor=none;align=center;verticalAlign=middle;whiteSpace=wrap;rounded=0;" vertex="1" parent="WIyWlLk6GJQsqaUBKTNV-1">
          <mxGeometry x="30" y="190" width="60" height="30" as="geometry" />
        </mxCell>
        <mxCell id="yMtjG-S56oMLCAJ_Q67d-3" value="blue" style="text;html=1;strokeColor=none;fillColor=none;align=center;verticalAlign=middle;whiteSpace=wrap;rounded=0;" vertex="1" parent="WIyWlLk6GJQsqaUBKTNV-1">
          <mxGeometry x="30" y="420" width="60" height="30" as="geometry" />
        </mxCell>
        <mxCell id="yMtjG-S56oMLCAJ_Q67d-5" value="게임 설명" style="rhombus;whiteSpace=wrap;html=1;" vertex="1" parent="WIyWlLk6GJQsqaUBKTNV-1">
          <mxGeometry x="420" y="150" width="80" height="80" as="geometry" />
        </mxCell>
        <mxCell id="yMtjG-S56oMLCAJ_Q67d-6" value="게임 종료" style="rhombus;whiteSpace=wrap;html=1;" vertex="1" parent="WIyWlLk6GJQsqaUBKTNV-1">
          <mxGeometry x="630" y="150" width="80" height="80" as="geometry" />
        </mxCell>
        <mxCell id="yMtjG-S56oMLCAJ_Q67d-8" value="" style="endArrow=classic;html=1;rounded=0;exitX=1;exitY=0.5;exitDx=0;exitDy=0;entryX=0.5;entryY=0;entryDx=0;entryDy=0;" edge="1" parent="WIyWlLk6GJQsqaUBKTNV-1" source="WIyWlLk6GJQsqaUBKTNV-3" target="yMtjG-S56oMLCAJ_Q67d-5">
          <mxGeometry width="50" height="50" relative="1" as="geometry">
            <mxPoint x="300" y="170" as="sourcePoint" />
            <mxPoint x="350" y="120" as="targetPoint" />
            <Array as="points">
              <mxPoint x="460" y="100" />
            </Array>
          </mxGeometry>
        </mxCell>
        <mxCell id="yMtjG-S56oMLCAJ_Q67d-10" value="" style="endArrow=classic;html=1;rounded=0;entryX=0.5;entryY=0;entryDx=0;entryDy=0;" edge="1" parent="WIyWlLk6GJQsqaUBKTNV-1" target="yMtjG-S56oMLCAJ_Q67d-6">
          <mxGeometry width="50" height="50" relative="1" as="geometry">
            <mxPoint x="450" y="100" as="sourcePoint" />
            <mxPoint x="540" y="100" as="targetPoint" />
            <Array as="points">
              <mxPoint x="670" y="100" />
            </Array>
          </mxGeometry>
        </mxCell>
        <mxCell id="yMtjG-S56oMLCAJ_Q67d-11" value="" style="endArrow=classic;html=1;rounded=0;exitX=0.5;exitY=1;exitDx=0;exitDy=0;" edge="1" parent="WIyWlLk6GJQsqaUBKTNV-1" source="yMtjG-S56oMLCAJ_Q67d-5">
          <mxGeometry width="50" height="50" relative="1" as="geometry">
            <mxPoint x="210" y="390" as="sourcePoint" />
            <mxPoint x="460" y="290" as="targetPoint" />
          </mxGeometry>
        </mxCell>
        <mxCell id="yMtjG-S56oMLCAJ_Q67d-12" value="" style="endArrow=classic;html=1;rounded=0;exitX=0.5;exitY=1;exitDx=0;exitDy=0;" edge="1" parent="WIyWlLk6GJQsqaUBKTNV-1" source="WIyWlLk6GJQsqaUBKTNV-6">
          <mxGeometry width="50" height="50" relative="1" as="geometry">
            <mxPoint x="200" y="280" as="sourcePoint" />
            <mxPoint x="220" y="290" as="targetPoint" />
          </mxGeometry>
        </mxCell>
        <mxCell id="yMtjG-S56oMLCAJ_Q67d-13" value="" style="endArrow=classic;html=1;rounded=0;exitX=0.5;exitY=1;exitDx=0;exitDy=0;" edge="1" parent="WIyWlLk6GJQsqaUBKTNV-1" source="yMtjG-S56oMLCAJ_Q67d-6">
          <mxGeometry width="50" height="50" relative="1" as="geometry">
            <mxPoint x="500" y="390" as="sourcePoint" />
            <mxPoint x="670" y="300" as="targetPoint" />
          </mxGeometry>
        </mxCell>
        <mxCell id="yMtjG-S56oMLCAJ_Q67d-15" value="능숙도" style="rhombus;whiteSpace=wrap;html=1;" vertex="1" parent="WIyWlLk6GJQsqaUBKTNV-1">
          <mxGeometry x="180" y="300" width="80" height="50" as="geometry" />
        </mxCell>
        <mxCell id="yMtjG-S56oMLCAJ_Q67d-16" value="" style="endArrow=classic;html=1;rounded=0;exitX=0.5;exitY=1;exitDx=0;exitDy=0;" edge="1" parent="WIyWlLk6GJQsqaUBKTNV-1" source="yMtjG-S56oMLCAJ_Q67d-15">
          <mxGeometry relative="1" as="geometry">
            <mxPoint x="280" y="270" as="sourcePoint" />
            <mxPoint x="140" y="410" as="targetPoint" />
            <Array as="points">
              <mxPoint x="140" y="350" />
            </Array>
          </mxGeometry>
        </mxCell>
        <mxCell id="yMtjG-S56oMLCAJ_Q67d-17" value="능숙l" style="edgeLabel;resizable=0;html=1;align=center;verticalAlign=middle;" connectable="0" vertex="1" parent="yMtjG-S56oMLCAJ_Q67d-16">
          <mxGeometry relative="1" as="geometry" />
        </mxCell>
        <mxCell id="yMtjG-S56oMLCAJ_Q67d-18" value="" style="endArrow=classic;html=1;rounded=0;exitX=0.5;exitY=1;exitDx=0;exitDy=0;entryX=0;entryY=0.5;entryDx=0;entryDy=0;" edge="1" parent="WIyWlLk6GJQsqaUBKTNV-1" source="yMtjG-S56oMLCAJ_Q67d-15" target="yMtjG-S56oMLCAJ_Q67d-5">
          <mxGeometry relative="1" as="geometry">
            <mxPoint x="280" y="270" as="sourcePoint" />
            <mxPoint x="290" y="410" as="targetPoint" />
            <Array as="points">
              <mxPoint x="350" y="350" />
              <mxPoint x="350" y="190" />
            </Array>
          </mxGeometry>
        </mxCell>
        <mxCell id="yMtjG-S56oMLCAJ_Q67d-19" value="처음" style="edgeLabel;resizable=0;html=1;align=center;verticalAlign=middle;" connectable="0" vertex="1" parent="yMtjG-S56oMLCAJ_Q67d-18">
          <mxGeometry relative="1" as="geometry" />
        </mxCell>
        <mxCell id="yMtjG-S56oMLCAJ_Q67d-21" value="부루마블 시작" style="rounded=0;whiteSpace=wrap;html=1;" vertex="1" parent="WIyWlLk6GJQsqaUBKTNV-1">
          <mxGeometry x="100" y="420" width="90" height="30" as="geometry" />
        </mxCell>
        <mxCell id="yMtjG-S56oMLCAJ_Q67d-22" value="K 토마토의 삶" style="rounded=0;whiteSpace=wrap;html=1;" vertex="1" parent="WIyWlLk6GJQsqaUBKTNV-1">
          <mxGeometry x="420" y="300" width="86" height="30" as="geometry" />
        </mxCell>
        <mxCell id="yMtjG-S56oMLCAJ_Q67d-23" value="종료" style="rounded=0;whiteSpace=wrap;html=1;" vertex="1" parent="WIyWlLk6GJQsqaUBKTNV-1">
          <mxGeometry x="630" y="310" width="80" height="30" as="geometry" />
        </mxCell>
        <mxCell id="yMtjG-S56oMLCAJ_Q67d-26" value="목숨" style="rhombus;whiteSpace=wrap;html=1;" vertex="1" parent="WIyWlLk6GJQsqaUBKTNV-1">
          <mxGeometry x="105" y="460" width="80" height="40" as="geometry" />
        </mxCell>
        <mxCell id="yMtjG-S56oMLCAJ_Q67d-28" value="" style="endArrow=classic;html=1;rounded=0;" edge="1" parent="WIyWlLk6GJQsqaUBKTNV-1">
          <mxGeometry width="50" height="50" relative="1" as="geometry">
            <mxPoint x="460" y="340" as="sourcePoint" />
            <mxPoint x="150" y="380" as="targetPoint" />
            <Array as="points">
              <mxPoint x="460" y="380" />
            </Array>
          </mxGeometry>
        </mxCell>
        <mxCell id="yMtjG-S56oMLCAJ_Q67d-30" value="" style="endArrow=classic;html=1;rounded=0;exitX=0.5;exitY=1;exitDx=0;exitDy=0;" edge="1" parent="WIyWlLk6GJQsqaUBKTNV-1" source="yMtjG-S56oMLCAJ_Q67d-26">
          <mxGeometry width="50" height="50" relative="1" as="geometry">
            <mxPoint x="400" y="600" as="sourcePoint" />
            <mxPoint x="145" y="530" as="targetPoint" />
          </mxGeometry>
        </mxCell>
        <mxCell id="yMtjG-S56oMLCAJ_Q67d-31" value="1 이상" style="text;html=1;strokeColor=none;fillColor=none;align=center;verticalAlign=middle;whiteSpace=wrap;rounded=0;" vertex="1" parent="WIyWlLk6GJQsqaUBKTNV-1">
          <mxGeometry x="80" y="500" width="60" height="30" as="geometry" />
        </mxCell>
        <mxCell id="yMtjG-S56oMLCAJ_Q67d-32" value="주사위" style="shape=parallelogram;perimeter=parallelogramPerimeter;whiteSpace=wrap;html=1;fixedSize=1;" vertex="1" parent="WIyWlLk6GJQsqaUBKTNV-1">
          <mxGeometry x="97.5" y="530" width="95" height="30" as="geometry" />
        </mxCell>
        <mxCell id="yMtjG-S56oMLCAJ_Q67d-33" value="" style="endArrow=classic;html=1;rounded=0;exitX=1;exitY=0.5;exitDx=0;exitDy=0;" edge="1" parent="WIyWlLk6GJQsqaUBKTNV-1" source="yMtjG-S56oMLCAJ_Q67d-26">
          <mxGeometry width="50" height="50" relative="1" as="geometry">
            <mxPoint x="370" y="780" as="sourcePoint" />
            <mxPoint x="720" y="1030" as="targetPoint" />
            <Array as="points">
              <mxPoint x="720" y="480" />
            </Array>
          </mxGeometry>
        </mxCell>
        <mxCell id="yMtjG-S56oMLCAJ_Q67d-34" value="게임 오버" style="rounded=0;whiteSpace=wrap;html=1;" vertex="1" parent="WIyWlLk6GJQsqaUBKTNV-1">
          <mxGeometry x="680" y="1040" width="90" height="30" as="geometry" />
        </mxCell>
        <mxCell id="yMtjG-S56oMLCAJ_Q67d-35" value="메인 화면으로" style="rounded=0;whiteSpace=wrap;html=1;" vertex="1" parent="WIyWlLk6GJQsqaUBKTNV-1">
          <mxGeometry x="680" y="1100" width="90" height="30" as="geometry" />
        </mxCell>
        <mxCell id="yMtjG-S56oMLCAJ_Q67d-36" value="" style="endArrow=classic;html=1;rounded=0;exitX=0.5;exitY=1;exitDx=0;exitDy=0;entryX=0.5;entryY=0;entryDx=0;entryDy=0;" edge="1" parent="WIyWlLk6GJQsqaUBKTNV-1" source="yMtjG-S56oMLCAJ_Q67d-34" target="yMtjG-S56oMLCAJ_Q67d-35">
          <mxGeometry width="50" height="50" relative="1" as="geometry">
            <mxPoint x="360" y="860" as="sourcePoint" />
            <mxPoint x="410" y="810" as="targetPoint" />
          </mxGeometry>
        </mxCell>
        <mxCell id="yMtjG-S56oMLCAJ_Q67d-37" value="퀴즈 장면" style="rounded=0;whiteSpace=wrap;html=1;" vertex="1" parent="WIyWlLk6GJQsqaUBKTNV-1">
          <mxGeometry x="102.5" y="660" width="90" height="26" as="geometry" />
        </mxCell>
        <mxCell id="yMtjG-S56oMLCAJ_Q67d-39" value="상황 설명" style="rounded=0;whiteSpace=wrap;html=1;" vertex="1" parent="WIyWlLk6GJQsqaUBKTNV-1">
          <mxGeometry x="103.5" y="710" width="90" height="30" as="geometry" />
        </mxCell>
        <mxCell id="yMtjG-S56oMLCAJ_Q67d-40" value="quiz" style="text;html=1;strokeColor=none;fillColor=none;align=center;verticalAlign=middle;whiteSpace=wrap;rounded=0;" vertex="1" parent="WIyWlLk6GJQsqaUBKTNV-1">
          <mxGeometry x="10" y="656" width="60" height="30" as="geometry" />
        </mxCell>
        <mxCell id="yMtjG-S56oMLCAJ_Q67d-41" value="" style="endArrow=classic;html=1;rounded=0;exitX=0.5;exitY=1;exitDx=0;exitDy=0;entryX=0.5;entryY=0;entryDx=0;entryDy=0;" edge="1" parent="WIyWlLk6GJQsqaUBKTNV-1" source="yMtjG-S56oMLCAJ_Q67d-37" target="yMtjG-S56oMLCAJ_Q67d-39">
          <mxGeometry width="50" height="50" relative="1" as="geometry">
            <mxPoint x="250" y="878" as="sourcePoint" />
            <mxPoint x="300" y="828" as="targetPoint" />
          </mxGeometry>
        </mxCell>
        <mxCell id="yMtjG-S56oMLCAJ_Q67d-42" value="퀴즈 시작" style="rhombus;whiteSpace=wrap;html=1;" vertex="1" parent="WIyWlLk6GJQsqaUBKTNV-1">
          <mxGeometry x="107.5" y="760" width="80" height="60" as="geometry" />
        </mxCell>
        <mxCell id="yMtjG-S56oMLCAJ_Q67d-43" value="" style="endArrow=classic;html=1;rounded=0;exitX=0.5;exitY=1;exitDx=0;exitDy=0;entryX=0.5;entryY=0;entryDx=0;entryDy=0;" edge="1" parent="WIyWlLk6GJQsqaUBKTNV-1" source="yMtjG-S56oMLCAJ_Q67d-39" target="yMtjG-S56oMLCAJ_Q67d-42">
          <mxGeometry width="50" height="50" relative="1" as="geometry">
            <mxPoint x="350" y="818" as="sourcePoint" />
            <mxPoint x="400" y="768" as="targetPoint" />
          </mxGeometry>
        </mxCell>
        <mxCell id="yMtjG-S56oMLCAJ_Q67d-44" value="" style="endArrow=classic;html=1;rounded=0;exitX=0.5;exitY=1;exitDx=0;exitDy=0;" edge="1" parent="WIyWlLk6GJQsqaUBKTNV-1" source="yMtjG-S56oMLCAJ_Q67d-42">
          <mxGeometry width="50" height="50" relative="1" as="geometry">
            <mxPoint x="350" y="1018" as="sourcePoint" />
            <mxPoint x="148" y="850" as="targetPoint" />
          </mxGeometry>
        </mxCell>
        <mxCell id="yMtjG-S56oMLCAJ_Q67d-45" value="" style="endArrow=classic;html=1;rounded=0;exitX=1;exitY=0.5;exitDx=0;exitDy=0;" edge="1" parent="WIyWlLk6GJQsqaUBKTNV-1" source="yMtjG-S56oMLCAJ_Q67d-42">
          <mxGeometry width="50" height="50" relative="1" as="geometry">
            <mxPoint x="350" y="968" as="sourcePoint" />
            <mxPoint x="270" y="850" as="targetPoint" />
            <Array as="points">
              <mxPoint x="270" y="790" />
            </Array>
          </mxGeometry>
        </mxCell>
        <mxCell id="yMtjG-S56oMLCAJ_Q67d-46" value="피드백" style="rounded=0;whiteSpace=wrap;html=1;" vertex="1" parent="WIyWlLk6GJQsqaUBKTNV-1">
          <mxGeometry x="580" y="1100" width="70" height="30" as="geometry" />
        </mxCell>
        <mxCell id="yMtjG-S56oMLCAJ_Q67d-48" value="말 위치" style="rhombus;whiteSpace=wrap;html=1;" vertex="1" parent="WIyWlLk6GJQsqaUBKTNV-1">
          <mxGeometry x="97.5" y="580" width="96" height="40" as="geometry" />
        </mxCell>
        <mxCell id="yMtjG-S56oMLCAJ_Q67d-52" value="" style="endArrow=classic;html=1;rounded=0;exitX=0.5;exitY=1;exitDx=0;exitDy=0;entryX=0.5;entryY=0;entryDx=0;entryDy=0;" edge="1" parent="WIyWlLk6GJQsqaUBKTNV-1" source="yMtjG-S56oMLCAJ_Q67d-32" target="yMtjG-S56oMLCAJ_Q67d-48">
          <mxGeometry width="50" height="50" relative="1" as="geometry">
            <mxPoint x="370" y="790" as="sourcePoint" />
            <mxPoint x="420" y="740" as="targetPoint" />
          </mxGeometry>
        </mxCell>
        <mxCell id="yMtjG-S56oMLCAJ_Q67d-53" value="" style="endArrow=classic;html=1;rounded=0;exitX=0.5;exitY=1;exitDx=0;exitDy=0;entryX=0.5;entryY=0;entryDx=0;entryDy=0;" edge="1" parent="WIyWlLk6GJQsqaUBKTNV-1" source="yMtjG-S56oMLCAJ_Q67d-48" target="yMtjG-S56oMLCAJ_Q67d-37">
          <mxGeometry width="50" height="50" relative="1" as="geometry">
            <mxPoint x="370" y="790" as="sourcePoint" />
            <mxPoint x="146" y="640" as="targetPoint" />
          </mxGeometry>
        </mxCell>
        <mxCell id="yMtjG-S56oMLCAJ_Q67d-54" value="1바퀴 &lt;br&gt;미만" style="text;html=1;strokeColor=none;fillColor=none;align=center;verticalAlign=middle;whiteSpace=wrap;rounded=0;" vertex="1" parent="WIyWlLk6GJQsqaUBKTNV-1">
          <mxGeometry x="70" y="610" width="60" height="30" as="geometry" />
        </mxCell>
        <mxCell id="yMtjG-S56oMLCAJ_Q67d-59" value="" style="endArrow=classic;html=1;rounded=0;exitX=1;exitY=0.5;exitDx=0;exitDy=0;" edge="1" parent="WIyWlLk6GJQsqaUBKTNV-1" source="yMtjG-S56oMLCAJ_Q67d-48">
          <mxGeometry width="50" height="50" relative="1" as="geometry">
            <mxPoint x="370" y="780" as="sourcePoint" />
            <mxPoint x="610" y="1030" as="targetPoint" />
            <Array as="points">
              <mxPoint x="610" y="600" />
            </Array>
          </mxGeometry>
        </mxCell>
        <mxCell id="yMtjG-S56oMLCAJ_Q67d-60" value="게임 승리" style="rounded=0;whiteSpace=wrap;html=1;" vertex="1" parent="WIyWlLk6GJQsqaUBKTNV-1">
          <mxGeometry x="570" y="1040" width="80" height="30" as="geometry" />
        </mxCell>
        <mxCell id="yMtjG-S56oMLCAJ_Q67d-62" value="" style="endArrow=classic;html=1;rounded=0;exitX=0.5;exitY=1;exitDx=0;exitDy=0;" edge="1" parent="WIyWlLk6GJQsqaUBKTNV-1" source="yMtjG-S56oMLCAJ_Q67d-60">
          <mxGeometry width="50" height="50" relative="1" as="geometry">
            <mxPoint x="370" y="780" as="sourcePoint" />
            <mxPoint x="610" y="1090" as="targetPoint" />
          </mxGeometry>
        </mxCell>
        <mxCell id="yMtjG-S56oMLCAJ_Q67d-63" value="" style="endArrow=classic;html=1;rounded=0;exitX=1;exitY=0.5;exitDx=0;exitDy=0;entryX=0;entryY=0.5;entryDx=0;entryDy=0;" edge="1" parent="WIyWlLk6GJQsqaUBKTNV-1" source="yMtjG-S56oMLCAJ_Q67d-46" target="yMtjG-S56oMLCAJ_Q67d-35">
          <mxGeometry width="50" height="50" relative="1" as="geometry">
            <mxPoint x="370" y="780" as="sourcePoint" />
            <mxPoint x="420" y="730" as="targetPoint" />
          </mxGeometry>
        </mxCell>
        <mxCell id="yMtjG-S56oMLCAJ_Q67d-64" value="" style="endArrow=classic;html=1;rounded=0;" edge="1" parent="WIyWlLk6GJQsqaUBKTNV-1">
          <mxGeometry width="50" height="50" relative="1" as="geometry">
            <mxPoint x="270" y="790" as="sourcePoint" />
            <mxPoint x="390" y="850" as="targetPoint" />
            <Array as="points">
              <mxPoint x="390" y="790" />
            </Array>
          </mxGeometry>
        </mxCell>
        <mxCell id="yMtjG-S56oMLCAJ_Q67d-65" value="정답" style="text;html=1;strokeColor=none;fillColor=none;align=center;verticalAlign=middle;whiteSpace=wrap;rounded=0;" vertex="1" parent="WIyWlLk6GJQsqaUBKTNV-1">
          <mxGeometry x="80" y="820" width="60" height="30" as="geometry" />
        </mxCell>
        <mxCell id="yMtjG-S56oMLCAJ_Q67d-66" value="오답" style="text;html=1;strokeColor=none;fillColor=none;align=center;verticalAlign=middle;whiteSpace=wrap;rounded=0;" vertex="1" parent="WIyWlLk6GJQsqaUBKTNV-1">
          <mxGeometry x="210" y="820" width="60" height="30" as="geometry" />
        </mxCell>
        <mxCell id="yMtjG-S56oMLCAJ_Q67d-67" value="오답" style="text;html=1;strokeColor=none;fillColor=none;align=center;verticalAlign=middle;whiteSpace=wrap;rounded=0;" vertex="1" parent="WIyWlLk6GJQsqaUBKTNV-1">
          <mxGeometry x="330" y="820" width="60" height="30" as="geometry" />
        </mxCell>
        <mxCell id="yMtjG-S56oMLCAJ_Q67d-68" value="목숨 +1" style="rounded=0;whiteSpace=wrap;html=1;" vertex="1" parent="WIyWlLk6GJQsqaUBKTNV-1">
          <mxGeometry x="120" y="860" width="60" height="30" as="geometry" />
        </mxCell>
        <mxCell id="yMtjG-S56oMLCAJ_Q67d-69" value="목숨 -1" style="rounded=0;whiteSpace=wrap;html=1;" vertex="1" parent="WIyWlLk6GJQsqaUBKTNV-1">
          <mxGeometry x="240" y="860" width="60" height="30" as="geometry" />
        </mxCell>
        <mxCell id="yMtjG-S56oMLCAJ_Q67d-70" value="목숨 -1" style="rounded=0;whiteSpace=wrap;html=1;" vertex="1" parent="WIyWlLk6GJQsqaUBKTNV-1">
          <mxGeometry x="354" y="860" width="66" height="30" as="geometry" />
        </mxCell>
        <mxCell id="yMtjG-S56oMLCAJ_Q67d-71" value="" style="endArrow=classic;html=1;rounded=0;" edge="1" parent="WIyWlLk6GJQsqaUBKTNV-1">
          <mxGeometry width="50" height="50" relative="1" as="geometry">
            <mxPoint x="150" y="900" as="sourcePoint" />
            <mxPoint x="90" y="550" as="targetPoint" />
            <Array as="points">
              <mxPoint x="150" y="950" />
              <mxPoint x="60" y="950" />
              <mxPoint x="60" y="550" />
            </Array>
          </mxGeometry>
        </mxCell>
        <mxCell id="yMtjG-S56oMLCAJ_Q67d-72" value="재도전" style="rhombus;whiteSpace=wrap;html=1;" vertex="1" parent="WIyWlLk6GJQsqaUBKTNV-1">
          <mxGeometry x="290" y="930" width="80" height="50" as="geometry" />
        </mxCell>
        <mxCell id="yMtjG-S56oMLCAJ_Q67d-74" value="" style="endArrow=classic;html=1;rounded=0;exitX=0.5;exitY=1;exitDx=0;exitDy=0;entryX=0.5;entryY=0;entryDx=0;entryDy=0;" edge="1" parent="WIyWlLk6GJQsqaUBKTNV-1" source="yMtjG-S56oMLCAJ_Q67d-69" target="yMtjG-S56oMLCAJ_Q67d-72">
          <mxGeometry width="50" height="50" relative="1" as="geometry">
            <mxPoint x="370" y="920" as="sourcePoint" />
            <mxPoint x="420" y="870" as="targetPoint" />
            <Array as="points">
              <mxPoint x="270" y="930" />
            </Array>
          </mxGeometry>
        </mxCell>
        <mxCell id="yMtjG-S56oMLCAJ_Q67d-75" value="" style="endArrow=classic;html=1;rounded=0;exitX=0.5;exitY=1;exitDx=0;exitDy=0;entryX=0.5;entryY=0;entryDx=0;entryDy=0;" edge="1" parent="WIyWlLk6GJQsqaUBKTNV-1" source="yMtjG-S56oMLCAJ_Q67d-70" target="yMtjG-S56oMLCAJ_Q67d-72">
          <mxGeometry width="50" height="50" relative="1" as="geometry">
            <mxPoint x="370" y="920" as="sourcePoint" />
            <mxPoint x="420" y="870" as="targetPoint" />
            <Array as="points">
              <mxPoint x="387" y="930" />
            </Array>
          </mxGeometry>
        </mxCell>
        <mxCell id="yMtjG-S56oMLCAJ_Q67d-77" value="" style="endArrow=classic;html=1;rounded=0;" edge="1" parent="WIyWlLk6GJQsqaUBKTNV-1">
          <mxGeometry width="50" height="50" relative="1" as="geometry">
            <mxPoint x="330" y="980" as="sourcePoint" />
            <mxPoint x="380" y="1020" as="targetPoint" />
            <Array as="points">
              <mxPoint x="380" y="980" />
            </Array>
          </mxGeometry>
        </mxCell>
        <mxCell id="yMtjG-S56oMLCAJ_Q67d-79" value="No" style="text;html=1;strokeColor=none;fillColor=none;align=center;verticalAlign=middle;whiteSpace=wrap;rounded=0;" vertex="1" parent="WIyWlLk6GJQsqaUBKTNV-1">
          <mxGeometry x="240" y="950" width="60" height="30" as="geometry" />
        </mxCell>
        <mxCell id="yMtjG-S56oMLCAJ_Q67d-80" value="Yes" style="text;html=1;strokeColor=none;fillColor=none;align=center;verticalAlign=middle;whiteSpace=wrap;rounded=0;" vertex="1" parent="WIyWlLk6GJQsqaUBKTNV-1">
          <mxGeometry x="370" y="950" width="60" height="30" as="geometry" />
        </mxCell>
        <mxCell id="yMtjG-S56oMLCAJ_Q67d-81" value="" style="endArrow=classic;html=1;rounded=0;exitX=0.5;exitY=1;exitDx=0;exitDy=0;" edge="1" parent="WIyWlLk6GJQsqaUBKTNV-1" source="yMtjG-S56oMLCAJ_Q67d-72">
          <mxGeometry width="50" height="50" relative="1" as="geometry">
            <mxPoint x="370" y="1060" as="sourcePoint" />
            <mxPoint x="270" y="1020" as="targetPoint" />
            <Array as="points">
              <mxPoint x="270" y="980" />
            </Array>
          </mxGeometry>
        </mxCell>
        <mxCell id="yMtjG-S56oMLCAJ_Q67d-82" value="해설" style="rounded=0;whiteSpace=wrap;html=1;" vertex="1" parent="WIyWlLk6GJQsqaUBKTNV-1">
          <mxGeometry x="240" y="1025" width="70" height="35" as="geometry" />
        </mxCell>
        <mxCell id="yMtjG-S56oMLCAJ_Q67d-83" value="" style="endArrow=classic;html=1;rounded=0;exitX=0.5;exitY=1;exitDx=0;exitDy=0;exitPerimeter=0;" edge="1" parent="WIyWlLk6GJQsqaUBKTNV-1" source="yMtjG-S56oMLCAJ_Q67d-82">
          <mxGeometry width="50" height="50" relative="1" as="geometry">
            <mxPoint x="275" y="1070" as="sourcePoint" />
            <mxPoint x="80" y="550" as="targetPoint" />
            <Array as="points">
              <mxPoint x="275" y="1120" />
              <mxPoint x="60" y="1120" />
              <mxPoint x="60" y="550" />
            </Array>
          </mxGeometry>
        </mxCell>
        <mxCell id="yMtjG-S56oMLCAJ_Q67d-84" value="퀴즈 시작" style="rhombus;whiteSpace=wrap;html=1;" vertex="1" parent="WIyWlLk6GJQsqaUBKTNV-1">
          <mxGeometry x="340" y="1025" width="80" height="45" as="geometry" />
        </mxCell>
        <mxCell id="yMtjG-S56oMLCAJ_Q67d-85" value="" style="endArrow=classic;html=1;rounded=0;exitX=0.5;exitY=1;exitDx=0;exitDy=0;" edge="1" parent="WIyWlLk6GJQsqaUBKTNV-1" source="yMtjG-S56oMLCAJ_Q67d-84">
          <mxGeometry width="50" height="50" relative="1" as="geometry">
            <mxPoint x="370" y="920" as="sourcePoint" />
            <mxPoint x="340" y="1110" as="targetPoint" />
            <Array as="points">
              <mxPoint x="340" y="1070" />
            </Array>
          </mxGeometry>
        </mxCell>
        <mxCell id="yMtjG-S56oMLCAJ_Q67d-86" value="" style="endArrow=classic;html=1;rounded=0;exitX=0.5;exitY=1;exitDx=0;exitDy=0;" edge="1" parent="WIyWlLk6GJQsqaUBKTNV-1" source="yMtjG-S56oMLCAJ_Q67d-84">
          <mxGeometry width="50" height="50" relative="1" as="geometry">
            <mxPoint x="370" y="920" as="sourcePoint" />
            <mxPoint x="420" y="1110" as="targetPoint" />
            <Array as="points">
              <mxPoint x="420" y="1070" />
            </Array>
          </mxGeometry>
        </mxCell>
        <mxCell id="yMtjG-S56oMLCAJ_Q67d-87" value="목숨 +1" style="rounded=0;whiteSpace=wrap;html=1;" vertex="1" parent="WIyWlLk6GJQsqaUBKTNV-1">
          <mxGeometry x="310" y="1120" width="60" height="30" as="geometry" />
        </mxCell>
        <mxCell id="yMtjG-S56oMLCAJ_Q67d-88" value="해설" style="rounded=0;whiteSpace=wrap;html=1;" vertex="1" parent="WIyWlLk6GJQsqaUBKTNV-1">
          <mxGeometry x="400" y="1120" width="60" height="30" as="geometry" />
        </mxCell>
        <mxCell id="yMtjG-S56oMLCAJ_Q67d-89" value="" style="endArrow=classic;html=1;rounded=0;exitX=0.5;exitY=1;exitDx=0;exitDy=0;" edge="1" parent="WIyWlLk6GJQsqaUBKTNV-1" source="yMtjG-S56oMLCAJ_Q67d-87">
          <mxGeometry width="50" height="50" relative="1" as="geometry">
            <mxPoint x="370" y="920" as="sourcePoint" />
            <mxPoint x="60" y="580" as="targetPoint" />
            <Array as="points">
              <mxPoint x="340" y="1180" />
              <mxPoint x="60" y="1180" />
            </Array>
          </mxGeometry>
        </mxCell>
        <mxCell id="yMtjG-S56oMLCAJ_Q67d-90" value="" style="endArrow=classic;html=1;rounded=0;exitX=0.5;exitY=1;exitDx=0;exitDy=0;" edge="1" parent="WIyWlLk6GJQsqaUBKTNV-1" source="yMtjG-S56oMLCAJ_Q67d-88">
          <mxGeometry width="50" height="50" relative="1" as="geometry">
            <mxPoint x="370" y="920" as="sourcePoint" />
            <mxPoint x="310" y="1180" as="targetPoint" />
            <Array as="points">
              <mxPoint x="430" y="1180" />
            </Array>
          </mxGeometry>
        </mxCell>
        <mxCell id="yMtjG-S56oMLCAJ_Q67d-91" value="&lt;h1&gt;TOMATO BlueMarble&lt;/h1&gt;" style="text;html=1;strokeColor=none;fillColor=none;spacing=5;spacingTop=-20;whiteSpace=wrap;overflow=hidden;rounded=0;" vertex="1" parent="WIyWlLk6GJQsqaUBKTNV-1">
          <mxGeometry x="20" y="10" width="280" height="40" as="geometry" />
        </mxCell>
      </root>
    </mxGraphModel>
  </diagram>
</mxfile>
